<svg width="26" height="26" viewBox="0 0 26 26" fill="none" xmlns="http://www.w3.org/2000/svg">
<path d="M17.2344 15.5C18.892 15.5 20.4817 16.1585 21.6538 17.3306C22.8259 18.5027 23.4844 20.0924 23.4844 21.75V23C23.4844 23.663 23.221 24.2989 22.7521 24.7678C22.2833 25.2366 21.6474 25.5 20.9844 25.5H3.48438C2.82133 25.5 2.18545 25.2366 1.71661 24.7678C1.24777 24.2989 0.984375 23.663 0.984375 23V21.75C0.984375 20.0924 1.64286 18.5027 2.81496 17.3306C3.98706 16.1585 5.57677 15.5 7.23438 15.5H17.2344ZM22.2344 8C22.5659 8 22.8838 8.1317 23.1183 8.36612C23.3527 8.60054 23.4844 8.91848 23.4844 9.25V10.5H24.7344C25.0659 10.5 25.3838 10.6317 25.6183 10.8661C25.8527 11.1005 25.9844 11.4185 25.9844 11.75C25.9844 12.0815 25.8527 12.3995 25.6183 12.6339C25.3838 12.8683 25.0659 13 24.7344 13H23.4844V14.25C23.4844 14.5815 23.3527 14.8995 23.1183 15.1339C22.8838 15.3683 22.5659 15.5 22.2344 15.5C21.9029 15.5 21.5849 15.3683 21.3505 15.1339C21.1161 14.8995 20.9844 14.5815 20.9844 14.25V13H19.7344C19.4029 13 19.0849 12.8683 18.8505 12.6339C18.6161 12.3995 18.4844 12.0815 18.4844 11.75C18.4844 11.4185 18.6161 11.1005 18.8505 10.8661C19.0849 10.6317 19.4029 10.5 19.7344 10.5H20.9844V9.25C20.9844 8.91848 21.1161 8.60054 21.3505 8.36612C21.5849 8.1317 21.9029 8 22.2344 8ZM12.2344 0.5C13.892 0.5 15.4817 1.15848 16.6538 2.33058C17.8259 3.50269 18.4844 5.0924 18.4844 6.75C18.4844 8.4076 17.8259 9.99732 16.6538 11.1694C15.4817 12.3415 13.892 13 12.2344 13C10.5768 13 8.98706 12.3415 7.81496 11.1694C6.64286 9.99732 5.98438 8.4076 5.98438 6.75C5.98438 5.0924 6.64286 3.50269 7.81496 2.33058C8.98706 1.15848 10.5768 0.5 12.2344 0.5Z" fill="#8E8E8E"/>
</svg>
