<svg width="273" height="89" viewBox="0 0 273 89" fill="none" xmlns="http://www.w3.org/2000/svg">
<path d="M56.9531 71.1797V87H13.8281V71.1797H56.9531ZM21.1523 1.6875V87H0.585938V1.6875H21.1523ZM62.2266 55.9453V54.7148C62.2266 50.0664 62.8906 45.7891 64.2188 41.8828C65.5469 37.9375 67.5 34.5195 70.0781 31.6289C72.6562 28.7383 75.8398 26.4922 79.6289 24.8906C83.418 23.25 87.793 22.4297 92.7539 22.4297C97.7539 22.4297 102.148 23.25 105.938 24.8906C109.766 26.4922 112.969 28.7383 115.547 31.6289C118.125 34.5195 120.078 37.9375 121.406 41.8828C122.734 45.7891 123.398 50.0664 123.398 54.7148V55.9453C123.398 60.5547 122.734 64.832 121.406 68.7773C120.078 72.6836 118.125 76.1016 115.547 79.0312C112.969 81.9219 109.785 84.168 105.996 85.7695C102.207 87.3711 97.832 88.1719 92.8711 88.1719C87.9102 88.1719 83.5156 87.3711 79.6875 85.7695C75.8594 84.168 72.6562 81.9219 70.0781 79.0312C67.5 76.1016 65.5469 72.6836 64.2188 68.7773C62.8906 64.832 62.2266 60.5547 62.2266 55.9453ZM81.9727 54.7148V55.9453C81.9727 58.3281 82.1484 60.5547 82.5 62.625C82.8516 64.6953 83.4375 66.5117 84.2578 68.0742C85.0781 69.5977 86.1914 70.7891 87.5977 71.6484C89.0039 72.5078 90.7617 72.9375 92.8711 72.9375C94.9414 72.9375 96.6602 72.5078 98.0273 71.6484C99.4336 70.7891 100.547 69.5977 101.367 68.0742C102.188 66.5117 102.773 64.6953 103.125 62.625C103.477 60.5547 103.652 58.3281 103.652 55.9453V54.7148C103.652 52.4102 103.477 50.2422 103.125 48.2109C102.773 46.1406 102.188 44.3242 101.367 42.7617C100.547 41.1602 99.4336 39.9102 98.0273 39.0117C96.6211 38.1133 94.8633 37.6641 92.7539 37.6641C90.6836 37.6641 88.9453 38.1133 87.5391 39.0117C86.1719 39.9102 85.0781 41.1602 84.2578 42.7617C83.4375 44.3242 82.8516 46.1406 82.5 48.2109C82.1484 50.2422 81.9727 52.4102 81.9727 54.7148ZM202.91 41.4141V76.4531C201.465 78.0547 199.238 79.7734 196.23 81.6094C193.262 83.4062 189.512 84.9492 184.98 86.2383C180.449 87.5273 175.117 88.1719 168.984 88.1719C163.32 88.1719 158.184 87.2734 153.574 85.4766C148.965 83.6406 145 80.9648 141.68 77.4492C138.398 73.8945 135.859 69.5586 134.062 64.4414C132.305 59.2852 131.426 53.3867 131.426 46.7461V42C131.426 35.3594 132.324 29.4609 134.121 24.3047C135.918 19.1484 138.438 14.8125 141.68 11.2969C144.961 7.74219 148.809 5.04687 153.223 3.21094C157.676 1.375 162.559 0.457031 167.871 0.457031C175.723 0.457031 182.109 1.70703 187.031 4.20703C191.953 6.66797 195.684 10.0859 198.223 14.4609C200.762 18.7969 202.305 23.8164 202.852 29.5195H183.105C182.715 26.707 181.973 24.3242 180.879 22.3711C179.824 20.3789 178.301 18.875 176.309 17.8594C174.316 16.8047 171.738 16.2773 168.574 16.2773C166.113 16.2773 163.867 16.8047 161.836 17.8594C159.844 18.9141 158.145 20.5156 156.738 22.6641C155.332 24.7734 154.238 27.4297 153.457 30.6328C152.715 33.8359 152.344 37.5859 152.344 41.8828V46.7461C152.344 51.0039 152.695 54.7344 153.398 57.9375C154.141 61.1406 155.234 63.8164 156.68 65.9648C158.164 68.0742 160.039 69.6758 162.305 70.7695C164.609 71.8242 167.324 72.3516 170.449 72.3516C172.637 72.3516 174.512 72.1758 176.074 71.8242C177.637 71.4336 178.926 70.9648 179.941 70.418C180.996 69.832 181.797 69.2852 182.344 68.7773V55.5352H168.047V41.4141H202.91ZM211.523 55.9453V54.7148C211.523 50.0664 212.188 45.7891 213.516 41.8828C214.844 37.9375 216.797 34.5195 219.375 31.6289C221.953 28.7383 225.137 26.4922 228.926 24.8906C232.715 23.25 237.09 22.4297 242.051 22.4297C247.051 22.4297 251.445 23.25 255.234 24.8906C259.062 26.4922 262.266 28.7383 264.844 31.6289C267.422 34.5195 269.375 37.9375 270.703 41.8828C272.031 45.7891 272.695 50.0664 272.695 54.7148V55.9453C272.695 60.5547 272.031 64.832 270.703 68.7773C269.375 72.6836 267.422 76.1016 264.844 79.0312C262.266 81.9219 259.082 84.168 255.293 85.7695C251.504 87.3711 247.129 88.1719 242.168 88.1719C237.207 88.1719 232.812 87.3711 228.984 85.7695C225.156 84.168 221.953 81.9219 219.375 79.0312C216.797 76.1016 214.844 72.6836 213.516 68.7773C212.188 64.832 211.523 60.5547 211.523 55.9453ZM231.27 54.7148V55.9453C231.27 58.3281 231.445 60.5547 231.797 62.625C232.148 64.6953 232.734 66.5117 233.555 68.0742C234.375 69.5977 235.488 70.7891 236.895 71.6484C238.301 72.5078 240.059 72.9375 242.168 72.9375C244.238 72.9375 245.957 72.5078 247.324 71.6484C248.73 70.7891 249.844 69.5977 250.664 68.0742C251.484 66.5117 252.07 64.6953 252.422 62.625C252.773 60.5547 252.949 58.3281 252.949 55.9453V54.7148C252.949 52.4102 252.773 50.2422 252.422 48.2109C252.07 46.1406 251.484 44.3242 250.664 42.7617C249.844 41.1602 248.73 39.9102 247.324 39.0117C245.918 38.1133 244.16 37.6641 242.051 37.6641C239.98 37.6641 238.242 38.1133 236.836 39.0117C235.469 39.9102 234.375 41.1602 233.555 42.7617C232.734 44.3242 232.148 46.1406 231.797 48.2109C231.445 50.2422 231.27 52.4102 231.27 54.7148Z" fill="#767676"/>
</svg>
