<svg width="20" height="20" viewBox="0 0 20 20" fill="none" xmlns="http://www.w3.org/2000/svg">
<path d="M15.8334 0.833336H13.3334V2.5H15.8334C16.7525 2.5 17.5 3.2475 17.5 4.16667V6.66667H19.1667V4.16667C19.1667 2.32834 17.6717 0.833336 15.8334 0.833336ZM17.5 15.8333C17.5 16.7525 16.7525 17.5 15.8334 17.5H13.3334V19.1667H15.8334C17.6717 19.1667 19.1667 17.6717 19.1667 15.8333V13.3333H17.5V15.8333ZM2.50004 15.8333V13.3333H0.833374V15.8333C0.833374 17.6717 2.32837 19.1667 4.16671 19.1667H6.66671V17.5H4.16671C3.24754 17.5 2.50004 16.7525 2.50004 15.8333ZM2.50004 4.16667C2.50004 3.2475 3.24754 2.5 4.16671 2.5H6.66671V0.833336H4.16671C2.32837 0.833336 0.833374 2.32834 0.833374 4.16667V6.66667H2.50004V4.16667ZM7.50004 9.58333C7.50004 8.435 8.43504 7.5 9.58337 7.5C10.7317 7.5 11.6667 8.435 11.6667 9.58333C11.6667 10.7317 10.7317 11.6667 9.58337 11.6667C8.43504 11.6667 7.50004 10.7317 7.50004 9.58333ZM13.75 15C13.997 14.9993 14.2382 14.9256 14.4434 14.7881C14.6485 14.6507 14.8084 14.4556 14.903 14.2274C14.9975 13.9993 15.0224 13.7482 14.9746 13.506C14.9267 13.2637 14.8083 13.041 14.6342 12.8658L12.9575 11.19C13.2021 10.6895 13.3305 10.1403 13.3334 9.58333C13.3334 7.51584 11.6509 5.83334 9.58337 5.83334C7.51587 5.83334 5.83337 7.51584 5.83337 9.58333C5.83337 11.6508 7.51587 13.3333 9.58337 13.3333C10.1609 13.3333 10.7009 13.1917 11.19 12.9575L12.8659 14.6342C13.11 14.8783 13.43 15 13.75 15Z" fill="#111111"/>
</svg>
